HIERARCHY
ROOT root
{
	OFFSET	0	13.1	24.9
	CHANNELS 6  Xposition Yposition Zposition Xrotation Yrotation Zrotation
	JOINT spine_1
	{
		OFFSET	0	9.99999	0
		CHANNELS 3  Xrotation Yrotation Zrotation
		JOINT spine_2
		{
			OFFSET	0	112	-10
			CHANNELS 3  Xrotation Yrotation Zrotation
			JOINT spine_3
			{
				OFFSET	0	206.5	19.3
				CHANNELS 3  Xrotation Yrotation Zrotation
				JOINT spine_4
				{
					OFFSET	0	110.4	14.6
					CHANNELS 3  Xrotation Yrotation Zrotation
					JOINT neck_1
					{
						OFFSET	0	71.8	-50.3
						CHANNELS 3  Xrotation Yrotation Zrotation
						JOINT neck_2
						{
							OFFSET	0	86.2	-25.8
							CHANNELS 3  Xrotation Yrotation Zrotation
							JOINT head_ee
							{
								OFFSET	0	179.8	-8.7
								CHANNELS 3  Xrotation Yrotation Zrotation
								End Site
								{
									OFFSET	1	0	0
								}
							}
						}
					}
					JOINT left_clavicle
					{
						OFFSET	-43.2	22.4	-70.8
						CHANNELS 3  Xrotation Yrotation Zrotation
						JOINT left_shoulder
						{
							OFFSET	-93.9	-5.79999	48.7
							CHANNELS 3  Xrotation Yrotation Zrotation
							JOINT left_elbow
							{
								OFFSET	-291.4	-30.8	15.2
								CHANNELS 3  Xrotation Yrotation Zrotation
								JOINT left_lowarm_twist
								{
									OFFSET	-110.7	-3.89999	13.6
									CHANNELS 3  Xrotation Yrotation Zrotation
									JOINT left_hand
									{
										OFFSET	-110.7	-3.89999	13.6
										CHANNELS 3  Xrotation Yrotation Zrotation
										JOINT left_ee
										{
											OFFSET	-80.8	-5.10001	12.1
											CHANNELS 3  Xrotation Yrotation Zrotation
											End Site
											{
												OFFSET	1	0	0
											}
										}
									}
								}
							}
						}
					}
					JOINT right_clavicle
					{
						OFFSET	43.2	22.4	-70.8
						CHANNELS 3  Xrotation Yrotation Zrotation
						JOINT right_shoulder
						{
							OFFSET	93.9	-5.79999	48.7
							CHANNELS 3  Xrotation Yrotation Zrotation
							JOINT right_elbow
							{
								OFFSET	291.4	-30.8	15.2
								CHANNELS 3  Xrotation Yrotation Zrotation
								JOINT right_lowarm_twist
								{
									OFFSET	110.7	-3.89999	13.6
									CHANNELS 3  Xrotation Yrotation Zrotation
									JOINT right_hand
									{
										OFFSET	110.7	-3.89999	13.6
										CHANNELS 3  Xrotation Yrotation Zrotation
										JOINT right_ee
										{
											OFFSET	80.8	-5.10001	12.1
											CHANNELS 3  Xrotation Yrotation Zrotation
											End Site
											{
												OFFSET	1	0	0
											}
										}
									}
								}
							}
						}
					}
				}
			}
		}
	}
	JOINT left_hip
	{
		OFFSET	-82.8	-127.5	0.300001
		CHANNELS 3  Xrotation Yrotation Zrotation
		JOINT left_knee
		{
			OFFSET	-28.2	-396.7	2.2
			CHANNELS 3  Xrotation Yrotation Zrotation
			JOINT left_ankle
			{
				OFFSET	-11.7	-411.3	35.4
				CHANNELS 3  Xrotation Yrotation Zrotation
				JOINT left_toes
				{
					OFFSET	0	-60	-88.6
					CHANNELS 3  Xrotation Yrotation Zrotation
					JOINT left_foot_ee
					{
						OFFSET	-22.5	-16.5	-42.2
						CHANNELS 3  Xrotation Yrotation Zrotation
						End Site
						{
							OFFSET	1	0	0
						}
					}
				}
			}
		}
	}
	JOINT right_hip
	{
		OFFSET	82.8	-127.5	0.300001
		CHANNELS 3  Xrotation Yrotation Zrotation
		JOINT right_knee
		{
			OFFSET	28.2	-396.7	2.2
			CHANNELS 3  Xrotation Yrotation Zrotation
			JOINT right_ankle
			{
				OFFSET	11.7	-411.3	35.4
				CHANNELS 3  Xrotation Yrotation Zrotation
				JOINT right_toes
				{
					OFFSET	0	-60	-88.6
					CHANNELS 3  Xrotation Yrotation Zrotation
					JOINT right_foot_ee
					{
						OFFSET	22.5	-16.5	-42.2
						CHANNELS 3  Xrotation Yrotation Zrotation
						End Site
						{
							OFFSET	1	0	0
						}
					}
				}
			}
		}
	}
}
MOTION
Frames: 16
Frame Time: 0.02
3479.77419839 719.492 -1528.34650061 -22.1455674937 69.7433617501 17.7225554478 2.68666 0.757928 1.64953 2.68794 0.651443 1.6944 2.70709 0.365384 1.77814 2.70325 0.641583 1.69816 -8.06627 19.8581 3.3544 -8.21981 34.848 7.81541 -0.0 0.0 -0.0 -2.5878 23.7543 -0.774645 -24.3851 -14.6017 65.5686 1.53405 -37.2295 0.51673 -25.8071 -1.58317 2.8667 -2.74815 10.4409 -13.3656 -0.0 0.0 -0.0 14.5503 25.9708 -29.3009 4.68805 13.1274 -66.9112 0.588516 16.2533 -0.0840385 6.88246 -0.191155 0.85784 1.10957 14.7675 -1.17227 0.0 0.0 0.0 26.9763 11.2629 -3.81562 -54.5555 -1.64164 7.89895 39.4706 16.7657 -4.91356 -15.1747 0.0 0.0 -0.0 0.0 -0.0 22.1252 -9.4839 2.82697 -29.0232 -0.080238 -4.4059 38.9785 -3.24814 4.77072 -4.74505 0.0 0.0 0.0 0.0 0.0 
3482.41815564 719.492 -1532.76634667 -19.688991659 67.2084776036 15.0825328818 2.68666 0.757928 1.64953 2.68794 0.651443 1.6944 2.70709 0.365384 1.77814 2.70325 0.641583 1.69816 -8.06627 19.8581 3.3544 -8.21981 34.848 7.81541 -0.0 0.0 -0.0 -2.5878 23.7543 -0.774645 -24.3851 -14.6017 65.5686 1.53405 -37.2295 0.51673 -25.8071 -1.58317 2.8667 -2.74815 10.4409 -13.3656 -0.0 0.0 -0.0 14.5503 25.9708 -29.3009 4.68805 13.1274 -66.9112 0.588516 16.2533 -0.0840385 6.88246 -0.191155 0.85784 1.10957 14.7675 -1.17227 0.0 0.0 0.0 26.9763 11.2629 -3.81562 -54.5555 -1.64164 7.89895 39.4706 16.7657 -4.91356 -15.1747 0.0 0.0 -0.0 0.0 -0.0 22.1252 -9.4839 2.82697 -29.0232 -0.080238 -4.4059 38.9785 -3.24814 4.77072 -4.74505 0.0 0.0 0.0 0.0 0.0 
3475.54041824 721.376 -1533.60887915 -19.3725534349 68.1631373875 14.9411553078 2.49211 0.82508 1.73225 2.49349 0.713199 1.78122 2.51565 0.405875 1.87525 2.51142 0.696896 1.78766 -8.64114 20.2674 2.46887 -8.92022 36.347 7.26761 -0.0 0.0 -0.0 -2.40948 23.3327 -0.607536 -25.0484 -14.9686 65.7748 1.37599 -34.2775 0.424347 -24.9425 -1.50994 2.78354 -2.22834 10.8353 -9.77196 -0.0 0.0 -0.0 14.5434 26.8573 -29.1689 7.81689 14.529 -67.5035 0.518411 14.4028 -0.0655039 6.31264 -0.179258 0.786023 1.14864 13.6102 -1.94101 0.0 0.0 0.0 28.5091 12.2351 -5.16851 -56.0365 -1.78755 8.07451 35.6406 17.0273 -4.55139 -18.3109 0.0 0.0 -0.0 0.0 -0.0 22.2721 -11.9463 4.20432 -31.4114 0.0125786 -4.76063 39.0022 -0.70728 4.78425 -4.69062 0.0 0.0 0.0 0.0 0.0 
3469.24435743 722.649 -1531.62217706 -19.4931116124 69.0052339978 15.5668141968 2.57697 0.914231 1.61127 2.57805 0.809864 1.66616 2.60162 0.523096 1.77714 2.5981 0.79716 1.67227 -9.79675 19.0954 1.20189 -10.2389 35.1841 6.13953 -0.0 0.0 -0.0 -2.54295 23.5829 -0.745087 -25.9576 -14.6833 66.6614 1.21978 -31.141 0.339904 -25.4559 -1.55327 2.83305 -2.16957 9.88583 -9.8601 -0.0 0.0 -0.0 14.1544 27.498 -28.1696 12.1034 15.7099 -67.6399 0.562188 15.5622 -0.076822 5.97736 -0.171925 0.743823 1.47098 14.2523 -3.82771 0.0 0.0 0.0 29.8159 12.3807 -6.31321 -49.9851 -1.22087 7.3346 33.3266 17.5388 -4.32343 -17.6013 0.0 0.0 -0.0 0.0 -0.0 22.6157 -17.0229 5.86095 -33.2012 0.0917994 -5.02382 39.3169 6.14237 4.89043 -3.77681 0.0 0.0 0.0 0.0 0.0 
3455.95294633 723.336 -1521.33889717 -18.2465531375 69.7394777841 14.6381566939 2.38167 1.03579 1.59945 2.38261 0.931931 1.6621 2.40982 0.638207 1.79546 2.40648 0.913718 1.67218 -10.5481 18.5053 0.0306667 -11.0991 34.9415 5.11197 -0.0 0.0 -0.0 -2.47143 23.6943 -0.626847 -28.054 -14.6283 68.2122 0.977089 -25.8275 0.224035 -25.2672 -1.53729 2.8149 -1.72526 9.2905 -7.26033 -0.0 0.0 -0.0 13.8408 28.0564 -27.3621 17.0978 18.1782 -69.1654 0.593238 16.3768 -0.085365 4.77807 -0.143673 0.593231 1.886 13.2725 -7.06489 0.0 0.0 0.0 31.6805 12.3666 -7.74846 -42.0354 -0.601308 6.28083 27.5416 17.9579 -3.69417 -19.5218 0.0 0.0 -0.0 0.0 -0.0 24.0635 -24.4478 9.39831 -34.7948 0.169242 -5.25603 36.9724 12.9641 4.82828 -4.34043 0.0 0.0 0.0 0.0 0.0 
3446.76815378 722.084 -1518.65324961 -17.6544856568 69.3896424484 13.9026413626 2.39921 1.18565 1.65392 2.40009 1.07802 1.72599 2.4328 0.772278 1.88272 2.42942 1.05988 1.73719 -11.1673 18.283 -0.422758 -11.8103 34.8852 4.83238 -0.0 0.0 -0.0 -2.44072 24.0342 -0.523203 -28.9712 -14.5224 68.1982 0.895208 -23.9151 0.189593 -25.194 -1.53111 2.80785 -1.60339 8.96267 -6.62369 -0.0 0.0 -0.0 13.9762 28.1589 -27.6625 18.6897 18.5607 -70.2279 0.585676 16.179 -0.0832454 4.6528 -0.140541 0.577535 1.94555 13.2696 -7.46976 0.0 0.0 0.0 33.1013 12.3407 -8.56411 -39.4986 -0.435177 5.92798 25.717 18.0574 -3.48262 -20.1661 0.0 0.0 -0.0 0.0 -0.0 24.0912 -26.0851 10.0738 -34.9908 0.179214 -5.28445 37.427 14.121 4.90437 -4.15035 0.0 0.0 0.0 0.0 0.0 
3437.01645254 724.21 -1518.79364198 -16.0239372942 69.6252341394 12.4443756172 2.3348 1.1548 1.65079 2.33571 1.04744 1.72091 2.36742 0.740825 1.87341 2.364 1.02736 1.73297 -12.314 18.2512 -0.233595 -13.1333 34.8235 5.41442 -0.0 0.0 -0.0 -2.53125 23.8704 -0.676102 -30.2164 -14.3018 68.8265 0.830846 -22.3708 0.164295 -24.4212 -1.46639 2.73287 -1.22674 8.69867 -4.30537 -0.0 0.0 -0.0 14.1551 28.5647 -28.021 18.6244 19.5346 -69.8497 0.852098 22.8846 -0.172471 4.07515 -0.125651 0.505248 2.40738 14.186 -10.1933 0.0 0.0 0.0 34.1124 11.3296 -9.53983 -36.357 -0.251415 5.48154 22.0062 18.5152 -3.03782 -21.696 0.0 0.0 -0.0 0.0 -0.0 22.2126 -25.1037 10.5062 -34.7683 0.167904 -5.2522 37.695 15.9204 4.98644 -4.49011 0.0 0.0 0.0 0.0 0.0 
3423.87861534 720.778 -1516.07082251 -15.6602359477 69.6834095865 12.10764061 2.45171 1.20393 1.61416 2.45249 1.09879 1.68747 2.48508 0.800924 1.84752 2.48195 1.08261 1.6979 -13.3191 18.0919 -0.466103 -14.2908 34.7543 5.50464 -0.0 0.0 -0.0 -2.72863 24.2025 -0.88156 -31.7475 -14.1008 69.2693 0.780082 -21.1279 0.145483 -23.9687 -1.42897 2.68857 -1.10731 8.6408 -3.55905 -0.0 0.0 -0.0 14.2891 28.6328 -28.3231 19.7316 20.4674 -69.4245 0.954773 25.3122 -0.214403 3.67881 -0.115013 0.455737 2.62572 14.6408 -11.473 0.0 0.0 0.0 34.7811 10.8879 -9.88356 -34.0297 -0.131257 5.14482 19.6538 18.6641 -2.74268 -22.3177 0.0 0.0 -0.0 0.0 -0.0 21.2886 -26.0435 11.3927 -34.0907 0.134227 -5.15369 37.5262 17.1924 5.01456 -4.35524 0.0 0.0 0.0 0.0 0.0 
3414.27948419 718.097 -1511.69124587 -15.2140141168 69.7646514213 11.612728977 2.43361 1.21794 1.64376 2.43442 1.11089 1.7179 2.46798 0.807205 1.87977 2.46471 1.09391 1.72876 -13.9893 18.0776 -0.381653 -15.0649 34.7296 5.82256 -0.0 0.0 -0.0 -2.66796 23.9726 -0.842901 -32.4236 -14.0219 69.6302 0.746775 -20.301 0.133702 -23.6258 -1.40085 2.65481 -0.960758 8.58191 -2.63816 -0.0 0.0 -0.0 14.3786 28.6652 -28.5271 20.5965 21.3231 -69.3089 1.11075 28.8202 -0.285409 3.39495 -0.107183 0.420323 2.84418 15.1576 -12.7257 0.0 0.0 0.0 35.5257 10.2511 -9.97148 -32.0076 -0.0380502 4.84856 17.928 18.8308 -2.52137 -22.962 0.0 0.0 -0.0 0.0 -0.0 20.4712 -25.9755 11.6615 -33.4487 0.103401 -5.06002 37.3894 18.3281 5.04353 -4.45499 0.0 0.0 0.0 0.0 0.0 
3414.26880011 718.097 -1511.64492482 -15.2258214724 69.7806425448 11.625312375 2.43361 1.21794 1.64376 2.43442 1.11089 1.7179 2.46798 0.807205 1.87977 2.46471 1.09391 1.72876 -13.9893 18.0776 -0.381653 -15.0649 34.7296 5.82256 -0.0 0.0 -0.0 -2.66796 23.9726 -0.842901 -32.4236 -14.0219 69.6302 0.746775 -20.301 0.133702 -23.6258 -1.40085 2.65481 -0.960758 8.58191 -2.63816 -0.0 0.0 -0.0 14.3786 28.6652 -28.5271 20.5965 21.3231 -69.3089 1.11075 28.8202 -0.285409 3.39495 -0.107183 0.420323 2.84418 15.1576 -12.7257 0.0 0.0 0.0 35.5257 10.2511 -9.97148 -32.0076 -0.0380502 4.84856 17.928 18.8308 -2.52137 -22.962 0.0 0.0 -0.0 0.0 -0.0 20.4712 -25.9755 11.6615 -33.4487 0.103401 -5.06002 37.3894 18.3281 5.04353 -4.45499 0.0 0.0 0.0 0.0 0.0 
3406.92154894 717.106 -1507.79454436 -15.9651476394 70.686631476 12.1490724993 2.54303 1.07488 1.84539 2.54441 0.955293 1.91002 2.57632 0.625408 2.04192 2.57174 0.939985 1.9176 -14.9631 18.3373 0.355778 -16.2029 34.8677 6.96769 -0.0 0.0 -0.0 -2.69346 23.9974 -0.872848 -33.4392 -13.8593 69.9193 0.710837 -19.3986 0.121498 -23.5429 -1.39409 2.64663 -0.866579 8.87481 -1.90172 -0.0 0.0 -0.0 13.9654 27.6481 -27.7082 21.5978 22.1567 -69.1083 1.35357 33.8408 -0.41179 3.30546 -0.104679 0.409166 3.05425 16.2699 -13.6332 0.0 0.0 0.0 36.9608 9.51121 -10.5826 -28.8399 0.0867505 4.37852 16.2985 19.0847 -2.3092 -23.5523 0.0 0.0 -0.0 0.0 -0.0 19.4743 -25.7084 12.1472 -31.0766 -0.00132698 -4.71113 37.8333 23.0848 5.29347 -3.93509 0.0 0.0 0.0 0.0 0.0 
3406.64584836 717.106 -1506.36588532 -16.3581196835 71.1556302843 12.5648816618 2.54303 1.07488 1.84539 2.54441 0.955293 1.91002 2.57632 0.625408 2.04192 2.57174 0.939985 1.9176 -14.9631 18.3373 0.355778 -16.2029 34.8677 6.96769 -0.0 0.0 -0.0 -2.69346 23.9974 -0.872848 -33.4392 -13.8593 69.9193 0.710837 -19.3986 0.121498 -23.5429 -1.39409 2.64663 -0.866579 8.87481 -1.90172 -0.0 0.0 -0.0 13.9654 27.6481 -27.7082 21.5978 22.1567 -69.1083 1.35357 33.8408 -0.41179 3.30546 -0.104679 0.409166 3.05425 16.2699 -13.6332 0.0 0.0 0.0 36.9608 9.51121 -10.5826 -28.8399 0.0867505 4.37852 16.2985 19.0847 -2.3092 -23.5523 0.0 0.0 -0.0 0.0 -0.0 19.4743 -25.7084 12.1472 -31.0766 -0.00132698 -4.71113 37.8333 23.0848 5.29347 -3.93509 0.0 0.0 0.0 0.0 0.0 
3400.28512584 715.464 -1502.27767872 -21.0761749257 71.7967081528 17.7007143544 2.68075 0.983149 1.99807 2.68256 0.854042 2.05655 2.71309 0.506392 2.16845 2.70752 0.842431 2.06133 -13.0845 17.9489 -1.7325 -14.0419 35.2365 4.18501 -0.0 0.0 -0.0 -2.64019 23.6243 -0.870501 -33.9565 -13.8304 70.017 0.690094 -18.8732 0.114698 -23.4261 -1.38458 2.63508 -0.777116 9.33378 -1.12589 -0.0 0.0 -0.0 13.6156 27.4037 -26.9275 21.7114 23.245 -69.3763 1.63647 39.0272 -0.579975 3.11286 -0.0992291 0.385167 3.22474 16.7705 -14.5596 0.0 0.0 0.0 37.9529 8.98295 -11.159 -22.6668 0.254439 3.44646 15.828 19.1905 -2.24747 -23.7179 0.0 0.0 -0.0 0.0 -0.0 19.1317 -25.8249 12.0322 -29.8633 -0.049279 -4.53111 37.1009 26.3708 5.39592 -4.59767 0.0 0.0 0.0 0.0 0.0 
3306.72110858 686.439 -1467.37616223 -42.2086083337 72.1423129012 38.2194938544 4.05596 0.509736 2.83495 4.06038 0.328384 2.86161 4.07414 -0.0759375 2.87938 4.06278 0.37957 2.85528 -8.87902 14.5804 -3.34683 -9.02446 29.6379 0.186531 -0.0 0.0 -0.0 -2.251 21.8947 -0.642147 -35.3732 -16.0935 69.9148 0.385049 -10.7992 0.0363953 -23.5089 -1.39131 2.64326 -0.325255 9.96445 2.04159 -0.0 0.0 -0.0 13.1428 27.0698 -25.8764 22.1778 26.6019 -66.8994 2.89192 55.0725 -1.508 1.39397 -0.0470252 0.171823 3.33341 16.4049 -15.4892 0.0 0.0 0.0 40.1462 5.48402 -8.81843 6.03705 -0.295246 -0.878664 -10.0322 17.1613 1.5122 -25.068 0.0 0.0 -0.0 0.0 -0.0 14.1181 -12.3235 13.0262 -24.2322 -0.221442 -3.68441 37.8326 30.6437 5.74588 -6.91927 0.0 0.0 0.0 0.0 0.0 
3263.75295838 674.915 -1452.99447957 -41.2772259393 70.4567876314 36.7195156887 4.44946 0.489569 3.19883 4.4551 0.285135 3.22347 4.46714 -0.147395 3.23268 4.45275 0.364727 3.21544 -9.05826 14.6988 -3.38636 -9.22647 29.8981 0.230293 -0.0 0.0 -0.0 -2.05324 22.0468 -0.335964 -35.2385 -16.2623 69.4743 0.368434 -10.3435 0.033347 -23.868 -1.4207 2.67868 -0.257527 10.3239 2.62449 -0.0 0.0 -0.0 13.2648 26.5926 -26.2181 20.702 27.2481 -67.4094 3.11329 57.028 -1.69166 1.43293 -0.0482794 0.176642 3.39772 16.6142 -15.83 0.0 0.0 0.0 40.551 4.09004 -8.74245 2.47224 -0.109673 -0.36347 -14.7938 16.4343 2.23736 -25.4314 0.0 0.0 -0.0 0.0 -0.0 12.2019 -9.36211 14.8933 -24.6085 -0.212541 -3.74147 38.0725 30.0698 5.72986 -6.26283 0.0 0.0 0.0 0.0 0.0 
3244.12914968 672.768 -1445.31692302 -41.5014262741 69.9636258452 36.6694196511 4.60261 0.461054 3.27402 4.60854 0.251901 3.29669 4.61859 -0.181431 3.30132 4.60354 0.341938 3.28858 -7.67994 15.155 -1.94311 -7.72816 29.6472 1.37293 -0.0 0.0 -0.0 -2.04098 21.4388 -0.421687 -34.0381 -16.2725 69.4661 0.420472 -11.7661 0.0433259 -24.0405 -1.43489 2.69563 -0.286932 10.3389 2.44259 -0.0 0.0 -0.0 13.1348 27.1886 -25.8429 20.2269 27.3696 -67.6244 3.19816 57.727 -1.76314 1.2494 -0.0423431 0.153951 3.36943 16.3213 -15.7798 0.0 0.0 0.0 40.6551 4.15411 -8.44578 1.56721 -0.067702 -0.230953 -16.42 15.8958 2.48338 -25.8997 0.0 0.0 -0.0 0.0 -0.0 11.0788 -7.34764 15.8303 -24.4197 -0.217054 -3.71285 38.0418 28.0034 5.58938 -6.58191 0.0 0.0 0.0 0.0 0.0 
